# xmcd
#
# Track frame offsets:
#	150
#	11690
#	24070
#	37268
#	49971
#	63616
#	75673
#	87605
#	100299
#	112220
#	125843
#	137599
#	149751
#	162229
#	176538
#	189508
#	201433
#	213217
#	225410
#	236899
#	248902
#	262222
#	276745
#	288095
#	298729
#
# Disc length: 4120 seconds
#
# Revision: 1
# Processed by: cddbd v1.4PL0 Copyright (c) Steve Scherf et al.
# Submitted via: audiograbber 1.80.04
#
DISCID=91101619
DTITLE=Eddy Arnold - The Tennessee Plowboy And His Guitar, Vol. 3
DYEAR=1900
DGENRE=
TTITLE0=You Know How Talk Gets Around - 1949
TTITLE1=Just A Little Lovin' - 1948
TTITLE2=Till The End Of The World - 1998
TTITLE3=Save A Little Corner In Your Heart - 1998
TTITLE4=M - O-T-H-E-R
TTITLE5=I Wouldn't Trade The Silver In My Mother's Hair - 1949
TTITLE6=That Wonderful Mother Of Mine - 1949
TTITLE7=Bring Your Roses To Her Now - 1949
TTITLE8=I Wish I Had A Girl Like You Mother - 1949
TTITLE9=My Mother's Sweet Voice - 1949
TTITLE10=There's No Wings On My Angel - 1949
TTITLE11=The Echo Of Your Footsteps - 1949
TTITLE12=Why Didn't You Take That Too - 1998
TTITLE13=That Little Boy Of Mine - 1998
TTITLE14=My Heart Cries For You - 1998
TTITLE15=This Is The Thanks I Get (For Loving You) - 1954
TTITLE16=Don't Rob Another Man's Castle - 1949
TTITLE17=Me Too - 1998
TTITLE18=Little Angel With A Dirty Face - 1950
TTITLE19=I've Got Other Fish To Fry - 1998
TTITLE20=Many Tears Ago - 1949
TTITLE21=I Walk Alone - 1949
TTITLE22=Show Me The Way Back To Your Heart - 1949
TTITLE23=Homesick, Lonesome And Sorry - 1998
TTITLE24=One Kiss Too Many - 1949
EXTD=
EXTT0=
EXTT1=
EXTT2=
EXTT3=
EXTT4=
EXTT5=
EXTT6=
EXTT7=
EXTT8=
EXTT9=
EXTT10=
EXTT11=
EXTT12=
EXTT13=
EXTT14=
EXTT15=
EXTT16=
EXTT17=
EXTT18=
EXTT19=
EXTT20=
EXTT21=
EXTT22=
EXTT23=
EXTT24=
PLAYORDER=
